<svg aria-hidden="true" style="position: absolute; width: 0; height: 0; overflow: hidden;" version="1.1" xmlns="http://www.w3.org/2000/svg" xmlns:xlink="http://www.w3.org/1999/xlink">
<defs>
<symbol id="icon-Vector" viewBox="0 0 32 32">
<path fill="#52555f" style="fill: var(--color1, #52555f)" d="M0 9.6h6.857v22.4h-6.857v-22.4zM12.8 0h6.4v32h-6.4v-32zM25.6 18.286h6.4v13.714h-6.4v-13.714z"></path>
</symbol>
<symbol id="icon-Vector-Back" viewBox="0 0 45 32">
<path fill="#ff751d" style="fill: var(--color1, #ff751d)" d="M44 13.6h-34.008l8.592-8.616-3.384-3.384-14.4 14.4 14.4 14.4 3.384-3.384-8.592-8.616h34.008v-4.8z"></path>
</symbol>
<symbol id="icon-Vector-right" viewBox="0 0 19 32">
<path fill="none" stroke="#ff751d" style="stroke: var(--color1, #ff751d)" stroke-linejoin="miter" stroke-linecap="butt" stroke-miterlimit="4" stroke-width="5.3333" d="M2.667 2.667l10.667 13.333-10.667 13.333"></path>
</symbol>
<symbol id="icon-Vector-left" viewBox="0 0 19 32">
<path fill="none" stroke="#ff751d" style="stroke: var(--color1, #ff751d)" stroke-linejoin="miter" stroke-linecap="butt" stroke-miterlimit="4" stroke-width="5.3333" d="M16 2.667l-10.667 13.333 10.667 13.333"></path>
</symbol>
<symbol id="icon-calculator" viewBox="0 0 32 32">
<path fill="#52555f" style="fill: var(--color1, #52555f)" d="M27.25 0h-22.5c-1.551 0-2.813 1.262-2.813 2.813v26.375c0 1.551 1.262 2.812 2.813 2.812h22.5c1.551 0 2.813-1.262 2.813-2.812v-26.375c0-1.551-1.262-2.813-2.813-2.813zM28.188 29.188c0 0.517-0.421 0.937-0.938 0.937h-22.5c-0.517 0-0.938-0.42-0.938-0.937v-26.375c0-0.517 0.421-0.938 0.938-0.938h22.5c0.517 0 0.938 0.421 0.938 0.938v26.375z"></path>
<path fill="#52555f" style="fill: var(--color1, #52555f)" d="M25.375 3.75h-18.75c-0.518 0-0.938 0.42-0.938 0.938v7.625c0 0.518 0.42 0.938 0.938 0.938h18.75c0.518 0 0.937-0.42 0.937-0.938v-7.625c0-0.518-0.42-0.938-0.937-0.938zM24.437 11.375h-16.875v-5.75h16.875v5.75z"></path>
<path fill="#52555f" style="fill: var(--color1, #52555f)" d="M10.375 15.125h-3.75c-0.518 0-0.938 0.42-0.938 0.938v3.75c0 0.518 0.42 0.938 0.938 0.938h3.75c0.518 0 0.938-0.42 0.938-0.938v-3.75c0-0.518-0.42-0.938-0.938-0.938zM9.438 18.875h-1.875v-1.875h1.875v1.875z"></path>
<path fill="#52555f" style="fill: var(--color1, #52555f)" d="M10.375 22.625h-3.75c-0.518 0-0.938 0.42-0.938 0.938v3.75c0 0.518 0.42 0.937 0.938 0.937h3.75c0.518 0 0.938-0.42 0.938-0.937v-3.75c0-0.518-0.42-0.938-0.938-0.938zM9.438 26.375h-1.875v-1.875h1.875v1.875z"></path>
<path fill="#52555f" style="fill: var(--color1, #52555f)" d="M17.875 15.125h-3.75c-0.518 0-0.938 0.42-0.938 0.938v3.75c0 0.518 0.42 0.938 0.938 0.938h3.75c0.518 0 0.937-0.42 0.937-0.938v-3.75c0-0.518-0.42-0.938-0.937-0.938zM16.937 18.875h-1.875v-1.875h1.875v1.875z"></path>
<path fill="#52555f" style="fill: var(--color1, #52555f)" d="M17.875 22.625h-3.75c-0.518 0-0.938 0.42-0.938 0.938v3.75c0 0.518 0.42 0.937 0.938 0.937h3.75c0.518 0 0.937-0.42 0.937-0.937v-3.75c0-0.518-0.42-0.938-0.937-0.938zM16.937 26.375h-1.875v-1.875h1.875v1.875z"></path>
<path fill="#52555f" style="fill: var(--color1, #52555f)" d="M25.375 15.125h-3.75c-0.518 0-0.937 0.42-0.937 0.938v11.25c0 0.518 0.42 0.937 0.937 0.937h3.75c0.518 0 0.937-0.42 0.937-0.937v-11.25c0-0.518-0.42-0.938-0.937-0.938zM24.437 26.375h-1.875v-9.375h1.875v9.375z"></path>
</symbol>
<symbol id="icon-calendar" viewBox="0 0 32 32">
<path fill="#52555f" style="fill: var(--color1, #52555f)" d="M27.961 3.307h-2.099v-0.514c0-0.518-0.42-0.938-0.937-0.938s-0.937 0.42-0.937 0.938v0.514h-2.587v-0.514c0-0.518-0.42-0.938-0.938-0.938s-0.937 0.42-0.937 0.938v0.514h-2.587v-0.514c0-0.518-0.42-0.938-0.937-0.938s-0.938 0.42-0.938 0.938v0.514h-2.587v-0.514c0-0.518-0.42-0.938-0.938-0.938s-0.938 0.42-0.938 0.938v0.514h-2.587v-0.514c0-0.518-0.42-0.938-0.938-0.938s-0.938 0.42-0.938 0.938v0.514h-2.099c-2.227 0-4.039 1.812-4.039 4.039v18.758c0 2.227 1.812 4.039 4.039 4.039h23.921c2.227 0 4.039-1.812 4.039-4.039v-18.758c0-2.227-1.812-4.039-4.039-4.039zM30.125 26.105c0 1.193-0.971 2.164-2.164 2.164h-23.921c-1.193 0-2.164-0.971-2.164-2.164v-15.333h28.25v15.333zM30.125 8.897h-28.25v-1.55c0-1.193 0.971-2.164 2.164-2.164h2.099v0.362c0 0.518 0.42 0.938 0.938 0.938s0.938-0.42 0.938-0.938v-0.362h2.587v0.362c0 0.518 0.42 0.938 0.938 0.938s0.938-0.42 0.938-0.938v-0.362h2.587v0.362c0 0.518 0.42 0.938 0.938 0.938s0.937-0.42 0.937-0.938v-0.362h2.587v0.362c0 0.518 0.42 0.938 0.937 0.938s0.938-0.42 0.938-0.938v-0.362h2.587v0.362c0 0.518 0.42 0.938 0.937 0.938s0.937-0.42 0.937-0.938v-0.362h2.099c1.193 0 2.164 0.971 2.164 2.164v1.55z"></path>
<path fill="#52555f" style="fill: var(--color1, #52555f)" d="M10.451 12.771h-3.699c-0.518 0-0.938 0.42-0.938 0.938v3.828c0 0.518 0.42 0.937 0.938 0.937h3.699c0.518 0 0.938-0.42 0.938-0.937v-3.828c0-0.518-0.42-0.938-0.938-0.938zM9.513 16.598h-1.824v-1.952h1.824v1.952z"></path>
<path fill="#52555f" style="fill: var(--color1, #52555f)" d="M17.85 12.771h-3.699c-0.518 0-0.938 0.42-0.938 0.938v3.828c0 0.518 0.42 0.937 0.938 0.937h3.699c0.518 0 0.937-0.42 0.937-0.937v-3.828c0-0.518-0.42-0.938-0.937-0.938zM16.912 16.598h-1.824v-1.952h1.824v1.952z"></path>
<path fill="#52555f" style="fill: var(--color1, #52555f)" d="M25.248 12.771h-3.699c-0.518 0-0.937 0.42-0.937 0.938v3.828c0 0.518 0.42 0.937 0.937 0.937h3.699c0.518 0 0.937-0.42 0.937-0.937v-3.828c0-0.518-0.42-0.938-0.937-0.938zM24.311 16.598h-1.824v-1.952h1.824v1.952z"></path>
<path fill="#52555f" style="fill: var(--color1, #52555f)" d="M10.451 20.041h-3.699c-0.518 0-0.938 0.42-0.938 0.938v3.827c0 0.518 0.42 0.938 0.938 0.938h3.699c0.518 0 0.938-0.42 0.938-0.938v-3.827c0-0.518-0.42-0.938-0.938-0.938zM9.513 23.868h-1.824v-1.952h1.824v1.952z"></path>
<path fill="#52555f" style="fill: var(--color1, #52555f)" d="M17.85 20.041h-3.699c-0.518 0-0.938 0.42-0.938 0.938v3.827c0 0.518 0.42 0.938 0.938 0.938h3.699c0.518 0 0.937-0.42 0.937-0.938v-3.827c0-0.518-0.42-0.938-0.937-0.938zM16.912 23.868h-1.824v-1.952h1.824v1.952z"></path>
<path fill="#52555f" style="fill: var(--color1, #52555f)" d="M25.248 20.041h-3.699c-0.518 0-0.937 0.42-0.937 0.938v3.827c0 0.518 0.42 0.938 0.937 0.938h3.699c0.518 0 0.937-0.42 0.937-0.938v-3.827c0-0.518-0.42-0.938-0.937-0.938zM24.311 23.868h-1.824v-1.952h1.824v1.952z"></path>
</symbol>
</defs>
</svg>
